<svg width="550" height="1031" viewBox="0 0 550 1031" fill="none" xmlns="http://www.w3.org/2000/svg">
<g filter="url(#filter0_f_71_2018)">
<path d="M246.056 693C272.056 731.5 293.556 774 312.056 831C318.889 818.667 332.556 782.3 332.556 735.5C332.556 702.5 332.556 718.5 323.056 693C313.556 667.5 312.056 676.5 312.056 647C312.056 617.5 293.556 606.5 288.056 588C282.556 569.5 288.056 549.5 293.556 520C299.056 490.5 303.056 503.5 323.056 487C339.056 473.8 299 455.5 301 448L293.556 399L323.056 347L312.056 288L332.556 253L349.056 161C346.556 170.167 339.756 190 332.556 196C325.356 202 299.889 175.167 288.056 161C262.389 169.667 215.856 194.3 235.056 223.5C254.256 252.7 250.389 255.333 246.056 253C250.889 261.667 260.556 284.1 260.556 304.5C260.556 330 264.056 354.5 260.556 363.5C257.056 372.5 222.056 426 211.056 448C200.056 470 201.556 481.5 201.556 511C201.556 540.5 198.056 540 201.556 588C205.056 636 220.056 654.5 246.056 693Z" fill="#FF10F0"/>
</g>
<defs>
<filter id="filter0_f_71_2018" x="0" y="-39" width="549.056" height="1070" filterUnits="userSpaceOnUse" color-interpolation-filters="sRGB">
<feFlood flood-opacity="0" result="BackgroundImageFix"/>
<feBlend mode="normal" in="SourceGraphic" in2="BackgroundImageFix" result="shape"/>
<feGaussianBlur stdDeviation="100" result="effect1_foregroundBlur_71_2018"/>
</filter>
</defs>
</svg>
