<svg width="621" height="1080" viewBox="0 0 621 1080" fill="none" xmlns="http://www.w3.org/2000/svg">
<g filter="url(#filter0_f_71_2017)">
<path d="M1.5007 576C-31.4993 760.5 149.5 829.354 152 845.854L-12.999 957.5C150.501 957.5 66.743 1007.76 111 975.5C140.5 954 169.501 922 220.501 936C271.501 950 271.501 961 294.001 946.5C316.501 932 364.001 947.5 399.001 898.5C434.001 849.5 417.001 886.854 411.001 845.854C405.001 804.854 384.501 794.854 353.501 753.854C322.501 712.854 321.001 733.354 294.001 706.354C267.001 679.354 271.501 679.854 247.001 638.854C222.501 597.854 228.501 601.854 220.501 562.854C212.501 523.854 226.501 491.354 284.001 376.354C341.501 261.354 294.001 349.854 321.001 312.854C348.001 275.854 333.001 251.354 333.001 218.854C333.001 186.354 321.001 183.854 294.001 155.354C267.001 126.854 253.001 126.354 196.001 114.354C139.392 102.436 102.016 112.218 49.1 126.066L48.0008 126.354C-5.49913 140.354 -6.99926 171.354 -12.9993 218.854C-18.9993 266.354 -62 288.354 1.5 376.354C65 464.354 34.5007 391.5 1.5007 576Z" fill="#25FF54"/>
</g>
<defs>
<filter id="filter0_f_71_2017" x="-232.788" y="-91" width="853.22" height="1277.3" filterUnits="userSpaceOnUse" color-interpolation-filters="sRGB">
<feFlood flood-opacity="0" result="BackgroundImageFix"/>
<feBlend mode="normal" in="SourceGraphic" in2="BackgroundImageFix" result="shape"/>
<feGaussianBlur stdDeviation="100" result="effect1_foregroundBlur_71_2017"/>
</filter>
</defs>
</svg>
